<svg fill="none" height="24" viewBox="0 0 24 24" width="24" xmlns="http://www.w3.org/2000/svg"><g fill="#151515"><path d="m20.5704 11.8184c0 4.738-3.8408 8.5788-8.5788 8.5788-4.7379 0-8.57876-3.8408-8.57876-8.5788 0-4.7379 3.84086-8.57876 8.57876-8.57876 4.738 0 8.5788 3.84086 8.5788 8.57876z"/><path d="m6.14535 3.49383c-.63547.60784-.51896 2.05468-.38128 2.66896 1.88098-1.7793 4.80833-2.76428 5.68743-2.82783-.3813-.57191-1.1438-1.35727-2.19237-1.33447-1.23915.02693-2.38299.79433-3.11378 1.49334z"/><path d="m3.0564 16.652c.50681.7187 1.95491.8182 2.58282.7732-1.48046-2.1242-2.0201-5.1654-1.95249-6.0441-.62217.2922-1.51199.9297-1.64505 1.97-.15726 1.2295.43189 2.4745 1.01472 3.3009z"/><path d="m21.9817 10.8424c-.0232.879-1.1731 1.7648-1.7206 2.0756.0541-2.5887-1.1831-5.41869-1.7267-6.11248.6798-.10185 1.7738-.06469 2.4614.72723.8126.93591 1.0127 2.29871.9859 3.30965z"/><path d="m10.4338 21.7062c-.83874-.2641-1.37415-1.6133-1.52234-2.2251 2.47394.7639 5.53514.3526 6.35164.0208-.089.6816-.4256 1.7232-1.3761 2.1665-1.1233.5239-2.4886.3415-3.4532.0378z"/></g></svg>