<svg fill="none" height="24" viewBox="0 0 24 24" width="24" xmlns="http://www.w3.org/2000/svg"><path d="m13.25 20.7179c-1.3542 0-2.6074-.334-3.75977-1.0021-1.15234-.6681-2.0638-1.5763-2.73437-2.7244s-1.00586-2.3968-1.00586-3.746c0-1.3751.48828-2.5492 1.46484-3.52219.97657-.97299 2.15495-1.45948 3.53516-1.45948.4427 0 .9505.12324 1.5234.36973.573.24649 1.0873.61947 1.543 1.11894.4557.4995.6836 1.0411.6836 1.6249 0 .7654-.0716 1.3103-.2148 1.6346.4296-.1946.7812-.4962 1.0546-.9049.2735-.4086.4102-.8594.4102-1.3524 0-1.37518-.4883-2.54925-1.4648-3.52224-.9766-.97298-2.155-1.45947-3.5352-1.45947-1.13281 0-2.17773.27892-3.13477.83676-.95703.55785-1.71549 1.31353-2.27539 2.26706-.55989.95353-.83984 1.99459-.83984 3.12329 0 1.6216.24414 3.1006.73242 4.4368s1.07748 2.3481 1.76758 3.0357c-1.8099-.5967-3.0957-1.4984-3.85742-2.7049s-1.14258-2.7957-1.14258-4.7676c0-1.1806.23112-2.30923.69336-3.386s1.08398-2.00435 1.86523-2.78273c.78125-.77839 1.71224-1.39786 2.79297-1.85841 1.08073-.46054 2.21354-.69082 3.39844-.69082 1.3542 0 2.6074.33406 3.7598 1.00218 1.1523.66812 2.0638 1.57623 2.7343 2.72436.6706 1.14812 1.0059 2.39678 1.0059 3.74602 0 1.3751-.4883 2.5492-1.4648 3.5222-.9766.973-2.155 1.4595-3.5352 1.4595-.4427 0-.9505-.1233-1.5234-.3698-.573-.2465-1.0873-.6194-1.543-1.1189-.45573-.4995-.6836-1.0411-.6836-1.6249 0-.7654.07162-1.3103.21484-1.6346-.42968.1946-.78125.4962-1.05468.9049-.27344.4086-.41016.8594-.41016 1.3524 0 1.3752.48828 2.5492 1.46484 3.5222s2.15496 1.4595 3.53516 1.4595c1.1328 0 2.1777-.2789 3.1348-.8368.957-.5578 1.7155-1.3135 2.2754-2.267s.8398-1.9946.8398-3.1233c0-1.6087-.2441-3.08437-.7324-4.42709s-1.0775-2.35787-1.7676-3.04545c1.8099.59677 3.0957 1.4984 3.8574 2.7049.7617 1.20651 1.1426 2.79574 1.1426 4.76764 0 1.1805-.2311 2.3092-.6934 3.386-.4622 1.0768-1.0839 2.0043-1.8652 2.7827-.7812.7784-1.7122 1.3979-2.793 1.8584-1.0807.4606-2.2135.6908-3.3984.6908z" fill="#151515"/></svg>