<svg fill="none" height="24" viewBox="0 0 24 24" width="24" xmlns="http://www.w3.org/2000/svg"><path d="m4.22222 22h15.55558c1.2273 0 2.2222-.9949 2.2222-2.2222v-15.55558c0-1.2273-.9949-2.22222-2.2222-2.22222h-15.55558c-1.2273 0-2.22222.99492-2.22222 2.22222v15.55558c0 1.2273.99492 2.2222 2.22222 2.2222zm0 0 12.22218-12.22222 5.5556 5.55552m-12.22222-7.22219c0 .92048-.74619 1.66667-1.66667 1.66667-.92047 0-1.66667-.74619-1.66667-1.66667 0-.92047.7462-1.66667 1.66667-1.66667.92048 0 1.66667.7462 1.66667 1.66667z" stroke="#151515" stroke-linecap="round" stroke-linejoin="round" stroke-width="2"/></svg>