<svg fill="none" height="24" viewBox="0 0 24 24" width="24" xmlns="http://www.w3.org/2000/svg"><path d="m15.2112 15.7572c4.6703-4.1876 8.2889-9.68919 6.167-12.10224-.673-.76494-1.6128-1.11964-2.6218-1.01066-.8471.09356-1.7176.51613-2.5953 1.22554-1.3796-.72175-2.9196-1.07409-4.4726-1.02333s-3.0671.50293-4.39764 1.31327c-1.03434.61841-1.93678 1.43806-2.65495 2.41142-.71818.97337-1.23779 2.08105-1.52869 3.25879-.45339 1.81411-.34465 3.72511.31156 5.47481-1.08435 1.2369-2.09131 3.7805-.83795 5.2055.52639.5974 1.27983.8647 2.186.8647 2.75617 0 6.93167-2.4665 10.44437-5.6178zm3.7662-11.06998c.3645-.03496.6434.0658.8766.33209.2352.26834.1721.97262-.2566 1.98328-.4605-.70766-1.0143-1.34862-1.6463-1.90514.4388-.26938.79-.3835 1.0263-.41023zm-14.48955 12.64928c.45274.663.98946 1.2634 1.59649 1.7858-1.04362.3116-1.74514.291-1.98034.0216-.22094-.2498.00204-1.0991.38385-1.8074zm16.60625-6.0342c-1.237 1.8476-2.9588 3.7743-4.8648 5.4831-1.9691 1.7673-4.1398 3.2983-6.1599 4.3202.6268.1394 1.2663.2124 1.9081.218 1.6558-.0018 3.2802-.4574 4.6998-1.3181 1.4748-.8816 2.6723-2.1669 3.4539-3.7071s1.1155-3.2723.9629-4.9961z" fill="#151515"/></svg>