<svg fill="none" height="24" viewBox="0 0 24 24" width="24" xmlns="http://www.w3.org/2000/svg"><g stroke="#151515" stroke-linecap="round" stroke-linejoin="round" stroke-width="2"><path d="m12 14.7273c1.5062 0 2.7273-1.2211 2.7273-2.7273s-1.2211-2.72727-2.7273-2.72727-2.72727 1.22107-2.72727 2.72727 1.22107 2.7273 2.72727 2.7273z"/><path d="m18.7273 14.7273c-.121.2742-.1571.5783-.1037.8732.0535.2949.1941.5671.4037.7813l.0545.0546c.1691.1688.3032.3693.3947.5901.0915.2207.1386.4573.1386.6962 0 .239-.0471.4756-.1386.6963s-.2256.4212-.3947.5901c-.1688.169-.3694.3031-.5901.3946s-.4573.1386-.6962.1386c-.239 0-.4756-.0471-.6963-.1386s-.4212-.2256-.5901-.3946l-.0546-.0546c-.2142-.2095-.4863-.3501-.7812-.4036s-.5991-.0174-.8733.1036c-.2689.1153-.4982.3066-.6597.5505s-.2482.5297-.2494.8223v.1545c0 .4822-.1915.9447-.5325 1.2857-.341.3409-.8035.5325-1.2857.5325s-.9446-.1916-1.2856-.5325c-.341-.341-.5326-.8035-.5326-1.2857v-.0818c-.007-.3009-.1044-.5927-.27949-.8375-.1751-.2449-.4198-.4313-.70228-.5352-.2742-.121-.57836-.1571-.87326-.1037-.29491.0535-.56703.1941-.78129.4037l-.05454.0545c-.16886.1691-.36939.3032-.59011.3947-.22073.0915-.45732.1386-.69626.1386-.23893 0-.47553-.0471-.69625-.1386-.22073-.0915-.42125-.2256-.59011-.3947-.16905-.1688-.30316-.3694-.39465-.5901-.0915-.2207-.1386-.4573-.1386-.6962 0-.239.0471-.4756.1386-.6963.09149-.2207.2256-.4212.39465-.5901l.05454-.0546c.20958-.2142.35017-.4863.40365-.7812.05347-.2949.01737-.5991-.10365-.8733-.11523-.2689-.30658-.4982-.55048-.6597s-.52971-.2482-.82224-.2494h-.15455c-.48221 0-.94467-.1915-1.28565-.5325-.34097-.341-.53253-.8035-.53253-1.2857s.19156-.9446.53253-1.2856c.34098-.341.80344-.5326 1.28565-.5326h.08182c.3009-.007.59273-.1044.83754-.27949.24482-.1751.43129-.4198.53519-.70228.12101-.2742.15711-.57836.10364-.87326-.05347-.29491-.19406-.56703-.40364-.78129l-.05455-.05454c-.16905-.16886-.30315-.36939-.39465-.59011-.0915-.22073-.1386-.45732-.1386-.69626 0-.23893.0471-.47553.1386-.69625.0915-.22073.2256-.42125.39465-.59011.16886-.16905.36939-.30316.59011-.39465.22072-.0915.45732-.1386.69626-.1386.23893 0 .47553.0471.69625.1386.22072.09149.42125.2256.59011.39465l.05454.05454c.21426.20958.48638.35017.78129.40365.2949.05347.59906.01737.87326-.10365h.07273c.26888-.11523.4982-.30658.65972-.55048.16155-.2439.24825-.52971.24935-.82224v-.15455c0-.48221.1916-.94467.5326-1.28565.3409-.34097.8034-.53253 1.2856-.53253s.9447.19156 1.2856.53253c.341.34098.5326.80344.5326 1.28565v.08182c.0011.29253.0878.57834.2494.82224.1615.2439.3908.43525.6597.55049.2742.12101.5783.15711.8732.10364s.5671-.19406.7813-.40364l.0546-.05455c.1688-.16905.3693-.30315.5901-.39465.2207-.0915.4573-.1386.6962-.1386.239 0 .4756.0471.6963.1386s.4212.2256.5901.39465c.169.16886.3031.36939.3946.59011s.1386.45732.1386.69626c0 .23893-.0471.47553-.1386.69625s-.2256.42125-.3946.59011l-.0546.05454c-.2095.21426-.3501.48638-.4036.78129-.0535.2949-.0174.59906.1036.87326v.07273c.1153.26888.3066.4982.5505.65972.2439.16155.5297.24825.8223.24935h.1545c.4822 0 .9447.1916 1.2857.5326.3409.3409.5325.8034.5325 1.2856s-.1916.9447-.5325 1.2856c-.341.341-.8035.5326-1.2857.5326h-.0818c-.2925.0011-.5783.0878-.8222.2494-.2439.1615-.4353.3908-.5505.6597z"/></g></svg>