<svg fill="none" height="24" viewBox="0 0 24 24" width="24" xmlns="http://www.w3.org/2000/svg"><path d="m21.3536 9.12706-5.9956-.8864-2.6802-5.52736c-.0732-.15134-.1937-.27385-.3424-.34831-.3731-.18737-.8265-.03123-1.0131.34831l-2.68017 5.52736-5.99561.8864c-.1653.02402-.31643.10329-.43214.2234-.13989.14626-.21697.34303-.21431.54707.00265.20407.08483.39867.22848.54107l4.3379 4.3023-1.02485 6.0751c-.02403.1413-.00866.2866.04438.4195.05303.1329.14161.248.25568.3323s.24908.1343.38971.1445.28125-.0199.40592-.0868l5.36271-2.8682 5.3628 2.8682c.1464.0793.3164.1057.4794.0769.4109-.0721.6871-.4685.6163-.8864l-1.0249-6.0751 4.338-4.3023c.118-.1177.1959-.2714.2196-.43956.0637-.42038-.2244-.80952-.6376-.87198z" fill="#151515"/></svg>